<svg height="734" width="720" xmlns="http://www.w3.org/2000/svg">
<rect height="734" fill="#555" width="720"></rect>
<text fill="#7f7" font-family="Courier New" font-size="12" xml:space="preserve">
<tspan x="10" y="26">3 megabytes installed</tspan>
<tspan x="10" y="42"></tspan>
<tspan x="10" y="58">node_modules</tspan>
<tspan x="10" y="74">└─┬ npm-license@0.3.3 </tspan>
<tspan x="10" y="90">  ├─┬ mkdirp@0.5.1 </tspan>
<tspan x="10" y="106">  │ └── minimist@0.0.8 </tspan>
<tspan x="10" y="122">  ├─┬ nopt@3.0.6 </tspan>
<tspan x="10" y="138">  │ └── abbrev@1.1.0 </tspan>
<tspan x="10" y="154">  ├── nopt-usage@0.1.0 </tspan>
<tspan x="10" y="170">  ├── package-license@0.1.2 </tspan>
<tspan x="10" y="186">  ├── pkginfo@0.3.1 </tspan>
<tspan x="10" y="202">  ├─┬ read-installed@4.0.3 </tspan>
<tspan x="10" y="218">  │ ├── debuglog@1.0.1 </tspan>
<tspan x="10" y="234">  │ ├── graceful-fs@4.1.11 </tspan>
<tspan x="10" y="250">  │ ├─┬ read-package-json@2.0.5 </tspan>
<tspan x="10" y="266">  │ │ ├─┬ glob@7.1.1 </tspan>
<tspan x="10" y="282">  │ │ │ ├── fs.realpath@1.0.0 </tspan>
<tspan x="10" y="298">  │ │ │ ├── inflight@1.0.6 </tspan>
<tspan x="10" y="314">  │ │ │ ├── inherits@2.0.3 </tspan>
<tspan x="10" y="330">  │ │ │ ├─┬ minimatch@3.0.3 </tspan>
<tspan x="10" y="346">  │ │ │ │ └─┬ brace-expansion@1.1.7 </tspan>
<tspan x="10" y="362">  │ │ │ │   ├── balanced-match@0.4.2 </tspan>
<tspan x="10" y="378">  │ │ │ │   └── concat-map@0.0.1 </tspan>
<tspan x="10" y="394">  │ │ │ └── path-is-absolute@1.0.1 </tspan>
<tspan x="10" y="410">  │ │ ├─┬ json-parse-helpfulerror@1.0.3 </tspan>
<tspan x="10" y="426">  │ │ │ └── jju@1.3.0 </tspan>
<tspan x="10" y="442">  │ │ └─┬ normalize-package-data@2.3.8 </tspan>
<tspan x="10" y="458">  │ │   ├── hosted-git-info@2.4.2 </tspan>
<tspan x="10" y="474">  │ │   ├─┬ is-builtin-module@1.0.0 </tspan>
<tspan x="10" y="490">  │ │   │ └── builtin-modules@1.1.1 </tspan>
<tspan x="10" y="506">  │ │   └─┬ validate-npm-package-license@3.0.1 </tspan>
<tspan x="10" y="522">  │ │     ├─┬ spdx-correct@1.0.2 </tspan>
<tspan x="10" y="538">  │ │     │ └── spdx-license-ids@1.2.2 </tspan>
<tspan x="10" y="554">  │ │     └── spdx-expression-parse@1.0.4 </tspan>
<tspan x="10" y="570">  │ ├─┬ readdir-scoped-modules@1.0.2 </tspan>
<tspan x="10" y="586">  │ │ ├─┬ dezalgo@1.0.3 </tspan>
<tspan x="10" y="602">  │ │ │ ├── asap@2.0.5 </tspan>
<tspan x="10" y="618">  │ │ │ └── wrappy@1.0.2 </tspan>
<tspan x="10" y="634">  │ │ └── once@1.4.0 </tspan>
<tspan x="10" y="650">  │ ├── semver@5.3.0 </tspan>
<tspan x="10" y="666">  │ ├── slide@1.1.6 </tspan>
<tspan x="10" y="682">  │ └── util-extend@1.0.3 </tspan>
<tspan x="10" y="698">  ├── treeify@1.0.1 </tspan>
<tspan x="10" y="714">  └── underscore@1.4.4</tspan>
</text>
</svg>
